<svg width="131" height="24" viewBox="0 0 131 24" fill="none" xmlns="http://www.w3.org/2000/svg">
<path d="M34.6605 7.27273H37.2727L39.4886 12.6761H39.5909L41.8068 7.27273H44.419V16H42.3651V10.6392H42.2926L40.196 15.9446H38.8835L36.7869 10.6094H36.7145V16H34.6605V7.27273ZM45.6627 16V7.27273H51.748V8.9858H47.7721V10.7756H51.4369V12.4929H47.7721V14.2869H51.748V16H45.6627ZM58.7243 10.1236C58.676 9.9446 58.6049 9.78693 58.5112 9.65057C58.4174 9.51136 58.3024 9.39347 58.166 9.29688C58.0297 9.20028 57.8734 9.12784 57.6973 9.07955C57.5211 9.02841 57.3279 9.00284 57.1177 9.00284C56.6944 9.00284 56.3279 9.10511 56.0183 9.30966C55.7115 9.5142 55.4743 9.8125 55.3066 10.2045C55.139 10.5937 55.0552 11.0668 55.0552 11.6236C55.0552 12.1832 55.1362 12.6605 55.2981 13.0554C55.46 13.4503 55.6944 13.7514 56.0012 13.9588C56.3081 14.1662 56.6802 14.2699 57.1177 14.2699C57.5041 14.2699 57.8308 14.2074 58.0978 14.0824C58.3677 13.9545 58.5723 13.7741 58.7115 13.5412C58.8507 13.3082 58.9203 13.0341 58.9203 12.7188L59.3123 12.7656H57.1902V11.2273H60.9529V12.3821C60.9529 13.1634 60.7868 13.8324 60.4544 14.3892C60.1248 14.946 59.6703 15.3736 59.0907 15.6719C58.514 15.9702 57.8507 16.1193 57.1007 16.1193C56.2683 16.1193 55.5368 15.9389 54.9061 15.5781C54.2754 15.2173 53.7839 14.7031 53.4316 14.0355C53.0794 13.3651 52.9032 12.5696 52.9032 11.6491C52.9032 10.9332 53.0098 10.2983 53.2228 9.74432C53.4359 9.1875 53.7328 8.71591 54.1135 8.32955C54.497 7.94318 54.9402 7.65057 55.443 7.4517C55.9487 7.25284 56.4927 7.15341 57.0751 7.15341C57.5808 7.15341 58.051 7.22585 58.4856 7.37074C58.9231 7.51562 59.3095 7.72017 59.6447 7.98438C59.9828 8.24858 60.2569 8.5625 60.4672 8.92614C60.6774 9.28977 60.8081 9.68892 60.8592 10.1236H58.7243ZM63.7425 16H61.4754L64.42 7.27273H67.2282L70.1728 16H67.9058L65.8561 9.47159H65.7879L63.7425 16ZM63.4399 12.5653H68.1785V14.1676H63.4399V12.5653ZM81.4685 10.4347H79.3378C79.3094 10.2159 79.2512 10.0185 79.1631 9.84233C79.075 9.66619 78.9585 9.51562 78.8137 9.39062C78.6688 9.26562 78.4969 9.17045 78.298 9.10511C78.102 9.03693 77.8847 9.00284 77.646 9.00284C77.2227 9.00284 76.8577 9.10653 76.5509 9.31392C76.2469 9.52131 76.0125 9.82102 75.8477 10.2131C75.6858 10.6051 75.6048 11.0795 75.6048 11.6364C75.6048 12.2159 75.6872 12.7017 75.852 13.0938C76.0196 13.483 76.254 13.777 76.5551 13.9759C76.8591 14.1719 77.2185 14.2699 77.6333 14.2699C77.8662 14.2699 78.0779 14.2401 78.2682 14.1804C78.4614 14.1207 78.6304 14.0341 78.7753 13.9205C78.923 13.804 79.0438 13.6634 79.1375 13.4986C79.2341 13.331 79.3009 13.142 79.3378 12.9318L81.4685 12.9446C81.4315 13.331 81.3193 13.7116 81.1318 14.0866C80.9472 14.4616 80.6929 14.804 80.369 15.1136C80.0452 15.4205 79.6503 15.6648 79.1844 15.8466C78.7213 16.0284 78.1901 16.1193 77.5906 16.1193C76.8009 16.1193 76.0935 15.946 75.4685 15.5994C74.8463 15.25 74.3548 14.7415 73.994 14.0739C73.6333 13.4062 73.4529 12.5937 73.4529 11.6364C73.4529 10.6761 73.6361 9.86222 74.0026 9.1946C74.369 8.52699 74.8648 8.01989 75.4898 7.6733C76.1148 7.3267 76.8151 7.15341 77.5906 7.15341C78.119 7.15341 78.6077 7.22727 79.0565 7.375C79.5054 7.51989 79.9003 7.73295 80.2412 8.0142C80.5821 8.29261 80.8591 8.63494 81.0722 9.04119C81.2852 9.44744 81.4173 9.91193 81.4685 10.4347ZM82.6035 16V7.27273H86.2086C86.862 7.27273 87.426 7.39062 87.9004 7.62642C88.3777 7.85937 88.7456 8.1946 89.0041 8.6321C89.2626 9.06676 89.3919 9.58239 89.3919 10.179C89.3919 10.7841 89.2598 11.2983 88.9956 11.7216C88.7314 12.142 88.3564 12.4631 87.8706 12.6847C87.3848 12.9034 86.8095 13.0128 86.1447 13.0128H83.8649V11.3509H85.7527C86.0708 11.3509 86.3365 11.3097 86.5495 11.2273C86.7654 11.142 86.9288 11.0142 87.0396 10.8438C87.1504 10.6705 87.2058 10.4489 87.2058 10.179C87.2058 9.90909 87.1504 9.68608 87.0396 9.50994C86.9288 9.33097 86.7654 9.19744 86.5495 9.10938C86.3336 9.01847 86.068 8.97301 85.7527 8.97301H84.7129V16H82.6035ZM87.5169 12.0114L89.6902 16H87.389L85.2583 12.0114H87.5169ZM90.4768 16V7.27273H96.562V8.9858H92.5862V10.7756H96.251V12.4929H92.5862V14.2869H96.562V16H90.4768ZM99.6989 16H97.4318L100.376 7.27273H103.185L106.129 16H103.862L101.812 9.47159H101.744L99.6989 16ZM99.3963 12.5653H104.135V14.1676H99.3963V12.5653ZM105.622 8.9858V7.27273H112.998V8.9858H110.352V16H108.272V8.9858H105.622ZM121.795 11.6364C121.795 12.5966 121.61 13.4105 121.241 14.0781C120.872 14.7457 120.372 15.2528 119.741 15.5994C119.113 15.946 118.409 16.1193 117.627 16.1193C116.843 16.1193 116.137 15.9446 115.509 15.5952C114.882 15.2457 114.383 14.7386 114.014 14.0739C113.647 13.4062 113.464 12.5937 113.464 11.6364C113.464 10.6761 113.647 9.86222 114.014 9.1946C114.383 8.52699 114.882 8.01989 115.509 7.6733C116.137 7.3267 116.843 7.15341 117.627 7.15341C118.409 7.15341 119.113 7.3267 119.741 7.6733C120.372 8.01989 120.872 8.52699 121.241 9.1946C121.61 9.86222 121.795 10.6761 121.795 11.6364ZM119.639 11.6364C119.639 11.0682 119.558 10.5881 119.396 10.196C119.237 9.80398 119.007 9.5071 118.705 9.3054C118.407 9.10369 118.048 9.00284 117.627 9.00284C117.21 9.00284 116.85 9.10369 116.549 9.3054C116.248 9.5071 116.017 9.80398 115.855 10.196C115.695 10.5881 115.616 11.0682 115.616 11.6364C115.616 12.2045 115.695 12.6847 115.855 13.0767C116.017 13.4687 116.248 13.7656 116.549 13.9673C116.85 14.169 117.21 14.2699 117.627 14.2699C118.048 14.2699 118.407 14.169 118.705 13.9673C119.007 13.7656 119.237 13.4687 119.396 13.0767C119.558 12.6847 119.639 12.2045 119.639 11.6364ZM122.954 16V7.27273H126.56C127.213 7.27273 127.777 7.39062 128.251 7.62642C128.729 7.85937 129.096 8.1946 129.355 8.6321C129.614 9.06676 129.743 9.58239 129.743 10.179C129.743 10.7841 129.611 11.2983 129.346 11.7216C129.082 12.142 128.707 12.4631 128.221 12.6847C127.736 12.9034 127.16 13.0128 126.496 13.0128H124.216V11.3509H126.104C126.422 11.3509 126.687 11.3097 126.9 11.2273C127.116 11.142 127.28 11.0142 127.391 10.8438C127.501 10.6705 127.557 10.4489 127.557 10.179C127.557 9.90909 127.501 9.68608 127.391 9.50994C127.28 9.33097 127.116 9.19744 126.9 9.10938C126.685 9.01847 126.419 8.97301 126.104 8.97301H125.064V16H122.954ZM127.868 12.0114L130.041 16H127.74L125.609 12.0114H127.868Z" fill="#1A1A1A"/>
<g clip-path="url(#clip0_1721_7797)">
<path d="M0 5C0 2.23858 2.23858 0 5 0H19C21.7614 0 24 2.23858 24 5V19C24 21.7614 21.7614 24 19 24H5C2.23858 24 0 21.7614 0 19V5Z" fill="#721B46"/>
<path d="M3 18H8.83541V14.52C8.83541 14.112 8.89526 13.752 9.04489 13.416C9.17955 13.104 9.37406 12.936 9.64339 12.936C10.0025 12.984 10.2419 13.464 10.3616 14.328C10.3915 14.664 10.4065 15.888 10.4065 18H14.9401V14.52C14.9401 14.112 15 13.752 15.1496 13.416C15.2843 13.104 15.4788 12.936 15.7481 12.936C16.1072 12.984 16.3466 13.464 16.4663 14.328C16.4963 14.664 16.5112 15.888 16.5112 18H21V11.4C21 9.624 20.8055 8.28 20.4165 7.368C20.0274 6.456 19.3242 6 18.2918 6C17.3791 6 16.6309 6.456 16.0623 7.32C15.4938 8.184 15.1197 9.36 14.9551 10.8C14.9252 9.24 14.7157 8.04 14.3117 7.224C13.9077 6.408 13.2195 6 12.2469 6C11.1696 6 10.3317 6.6 9.74813 7.776C9.16459 8.952 8.85037 10.56 8.80549 12.6H4.16708V11.88C4.76559 11.88 5.27431 11.856 5.66334 11.808C6.05237 11.76 6.45636 11.64 6.90524 11.448C7.35411 11.256 7.69825 10.992 7.95262 10.632C8.19202 10.272 8.4015 9.768 8.58105 9.096C8.74564 8.448 8.83541 7.656 8.83541 6.72H3V18Z" fill="#FFFF65"/>
</g>
<defs>
<clipPath id="clip0_1721_7797">
<rect width="24" height="24" fill="white"/>
</clipPath>
</defs>
</svg>
