<svg width="127" height="20" viewBox="0 0 127 20" fill="none" xmlns="http://www.w3.org/2000/svg">
<path d="M30.6605 5.27273H33.2727L35.4886 10.6761H35.5909L37.8068 5.27273H40.419V14H38.3651V8.6392H38.2926L36.196 13.9446H34.8835L32.7869 8.60938H32.7145V14H30.6605V5.27273ZM41.6627 14V5.27273H47.748V6.9858H43.7721V8.77557H47.4369V10.4929H43.7721V12.2869H47.748V14H41.6627ZM54.7243 8.12358C54.676 7.9446 54.6049 7.78693 54.5112 7.65057C54.4174 7.51136 54.3024 7.39347 54.166 7.29688C54.0297 7.20028 53.8734 7.12784 53.6973 7.07955C53.5211 7.02841 53.3279 7.00284 53.1177 7.00284C52.6944 7.00284 52.3279 7.10511 52.0183 7.30966C51.7115 7.5142 51.4743 7.8125 51.3066 8.20455C51.139 8.59375 51.0552 9.06676 51.0552 9.62358C51.0552 10.1832 51.1362 10.6605 51.2981 11.0554C51.46 11.4503 51.6944 11.7514 52.0012 11.9588C52.3081 12.1662 52.6802 12.2699 53.1177 12.2699C53.5041 12.2699 53.8308 12.2074 54.0978 12.0824C54.3677 11.9545 54.5723 11.7741 54.7115 11.5412C54.8507 11.3082 54.9203 11.0341 54.9203 10.7188L55.3123 10.7656H53.1902V9.22727H56.9529V10.3821C56.9529 11.1634 56.7868 11.8324 56.4544 12.3892C56.1248 12.946 55.6703 13.3736 55.0907 13.6719C54.514 13.9702 53.8507 14.1193 53.1007 14.1193C52.2683 14.1193 51.5368 13.9389 50.9061 13.5781C50.2754 13.2173 49.7839 12.7031 49.4316 12.0355C49.0794 11.3651 48.9032 10.5696 48.9032 9.64915C48.9032 8.93324 49.0098 8.2983 49.2228 7.74432C49.4359 7.1875 49.7328 6.71591 50.1135 6.32955C50.497 5.94318 50.9402 5.65057 51.443 5.4517C51.9487 5.25284 52.4927 5.15341 53.0751 5.15341C53.5808 5.15341 54.051 5.22585 54.4856 5.37074C54.9231 5.51562 55.3095 5.72017 55.6447 5.98438C55.9828 6.24858 56.2569 6.5625 56.4672 6.92614C56.6774 7.28977 56.8081 7.68892 56.8592 8.12358H54.7243ZM59.7425 14H57.4754L60.42 5.27273H63.2282L66.1728 14H63.9058L61.8561 7.47159H61.7879L59.7425 14ZM59.4399 10.5653H64.1785V12.1676H59.4399V10.5653ZM77.4685 8.43466H75.3378C75.3094 8.21591 75.2512 8.01847 75.1631 7.84233C75.075 7.66619 74.9585 7.51562 74.8137 7.39062C74.6688 7.26562 74.4969 7.17045 74.298 7.10511C74.102 7.03693 73.8847 7.00284 73.646 7.00284C73.2227 7.00284 72.8577 7.10653 72.5509 7.31392C72.2469 7.52131 72.0125 7.82102 71.8477 8.21307C71.6858 8.60511 71.6048 9.07955 71.6048 9.63636C71.6048 10.2159 71.6872 10.7017 71.852 11.0938C72.0196 11.483 72.254 11.777 72.5551 11.9759C72.8591 12.1719 73.2185 12.2699 73.6333 12.2699C73.8662 12.2699 74.0779 12.2401 74.2682 12.1804C74.4614 12.1207 74.6304 12.0341 74.7753 11.9205C74.923 11.804 75.0438 11.6634 75.1375 11.4986C75.2341 11.331 75.3009 11.142 75.3378 10.9318L77.4685 10.9446C77.4315 11.331 77.3193 11.7116 77.1318 12.0866C76.9472 12.4616 76.6929 12.804 76.369 13.1136C76.0452 13.4205 75.6503 13.6648 75.1844 13.8466C74.7213 14.0284 74.1901 14.1193 73.5906 14.1193C72.8009 14.1193 72.0935 13.946 71.4685 13.5994C70.8463 13.25 70.3548 12.7415 69.994 12.0739C69.6333 11.4062 69.4529 10.5937 69.4529 9.63636C69.4529 8.67614 69.6361 7.86222 70.0026 7.1946C70.369 6.52699 70.8648 6.01989 71.4898 5.6733C72.1148 5.3267 72.8151 5.15341 73.5906 5.15341C74.119 5.15341 74.6077 5.22727 75.0565 5.375C75.5054 5.51989 75.9003 5.73295 76.2412 6.0142C76.5821 6.29261 76.8591 6.63494 77.0722 7.04119C77.2852 7.44744 77.4173 7.91193 77.4685 8.43466ZM78.6035 14V5.27273H82.2086C82.862 5.27273 83.426 5.39062 83.9004 5.62642C84.3777 5.85937 84.7456 6.1946 85.0041 6.6321C85.2626 7.06676 85.3919 7.58239 85.3919 8.17898C85.3919 8.78409 85.2598 9.2983 84.9956 9.72159C84.7314 10.142 84.3564 10.4631 83.8706 10.6847C83.3848 10.9034 82.8095 11.0128 82.1447 11.0128H79.8649V9.35085H81.7527C82.0708 9.35085 82.3365 9.30966 82.5495 9.22727C82.7654 9.14205 82.9288 9.0142 83.0396 8.84375C83.1504 8.67045 83.2058 8.44886 83.2058 8.17898C83.2058 7.90909 83.1504 7.68608 83.0396 7.50994C82.9288 7.33097 82.7654 7.19744 82.5495 7.10938C82.3336 7.01847 82.068 6.97301 81.7527 6.97301H80.7129V14H78.6035ZM83.5169 10.0114L85.6902 14H83.389L81.2583 10.0114H83.5169ZM86.4768 14V5.27273H92.562V6.9858H88.5862V8.77557H92.251V10.4929H88.5862V12.2869H92.562V14H86.4768ZM95.6989 14H93.4318L96.3764 5.27273H99.1847L102.129 14H99.8622L97.8125 7.47159H97.7443L95.6989 14ZM95.3963 10.5653H100.135V12.1676H95.3963V10.5653ZM101.622 6.9858V5.27273H108.998V6.9858H106.352V14H104.272V6.9858H101.622ZM117.795 9.63636C117.795 10.5966 117.61 11.4105 117.241 12.0781C116.872 12.7457 116.372 13.2528 115.741 13.5994C115.113 13.946 114.409 14.1193 113.627 14.1193C112.843 14.1193 112.137 13.9446 111.509 13.5952C110.882 13.2457 110.383 12.7386 110.014 12.0739C109.647 11.4062 109.464 10.5937 109.464 9.63636C109.464 8.67614 109.647 7.86222 110.014 7.1946C110.383 6.52699 110.882 6.01989 111.509 5.6733C112.137 5.3267 112.843 5.15341 113.627 5.15341C114.409 5.15341 115.113 5.3267 115.741 5.6733C116.372 6.01989 116.872 6.52699 117.241 7.1946C117.61 7.86222 117.795 8.67614 117.795 9.63636ZM115.639 9.63636C115.639 9.06818 115.558 8.58807 115.396 8.19602C115.237 7.80398 115.007 7.5071 114.705 7.3054C114.407 7.10369 114.048 7.00284 113.627 7.00284C113.21 7.00284 112.85 7.10369 112.549 7.3054C112.248 7.5071 112.017 7.80398 111.855 8.19602C111.695 8.58807 111.616 9.06818 111.616 9.63636C111.616 10.2045 111.695 10.6847 111.855 11.0767C112.017 11.4687 112.248 11.7656 112.549 11.9673C112.85 12.169 113.21 12.2699 113.627 12.2699C114.048 12.2699 114.407 12.169 114.705 11.9673C115.007 11.7656 115.237 11.4687 115.396 11.0767C115.558 10.6847 115.639 10.2045 115.639 9.63636ZM118.954 14V5.27273H122.56C123.213 5.27273 123.777 5.39062 124.251 5.62642C124.729 5.85937 125.096 6.1946 125.355 6.6321C125.614 7.06676 125.743 7.58239 125.743 8.17898C125.743 8.78409 125.611 9.2983 125.346 9.72159C125.082 10.142 124.707 10.4631 124.221 10.6847C123.736 10.9034 123.16 11.0128 122.496 11.0128H120.216V9.35085H122.104C122.422 9.35085 122.687 9.30966 122.9 9.22727C123.116 9.14205 123.28 9.0142 123.391 8.84375C123.501 8.67045 123.557 8.44886 123.557 8.17898C123.557 7.90909 123.501 7.68608 123.391 7.50994C123.28 7.33097 123.116 7.19744 122.9 7.10938C122.685 7.01847 122.419 6.97301 122.104 6.97301H121.064V14H118.954ZM123.868 10.0114L126.041 14H123.74L121.609 10.0114H123.868Z" fill="#1A1A1A"/>
<g clip-path="url(#clip0_1719_7895)">
<path d="M0 4.16667C0 1.86548 1.86548 0 4.16667 0H15.8333C18.1345 0 20 1.86548 20 4.16667V15.8333C20 18.1345 18.1345 20 15.8333 20H4.16667C1.86548 20 0 18.1345 0 15.8333V4.16667Z" fill="#721B46"/>
<path d="M2.5 15H7.36284V12.1C7.36284 11.76 7.41272 11.46 7.53741 11.18C7.64963 10.92 7.81172 10.78 8.03616 10.78C8.33541 10.82 8.53491 11.22 8.63466 11.94C8.6596 12.22 8.67207 13.24 8.67207 15H12.4501V12.1C12.4501 11.76 12.5 11.46 12.6247 11.18C12.7369 10.92 12.899 10.78 13.1234 10.78C13.4227 10.82 13.6222 11.22 13.7219 11.94C13.7469 12.22 13.7594 13.24 13.7594 15H17.5V9.5C17.5 8.02 17.3379 6.9 17.0137 6.14C16.6895 5.38 16.1035 5 15.2431 5C14.4825 5 13.8591 5.38 13.3853 6.1C12.9115 6.82 12.5997 7.8 12.4626 9C12.4377 7.7 12.2631 6.7 11.9264 6.02C11.5898 5.34 11.0162 5 10.2057 5C9.30798 5 8.60972 5.5 8.12344 6.48C7.63716 7.46 7.37531 8.8 7.3379 10.5H3.47257V9.9C3.97132 9.9 4.39526 9.88 4.71945 9.84C5.04364 9.8 5.3803 9.7 5.75436 9.54C6.12843 9.38 6.41521 9.16 6.62718 8.86C6.82668 8.56 7.00125 8.14 7.15087 7.58C7.28803 7.04 7.36284 6.38 7.36284 5.6H2.5V15Z" fill="#FFFF65"/>
</g>
<defs>
<clipPath id="clip0_1719_7895">
<rect width="20" height="20" fill="white"/>
</clipPath>
</defs>
</svg>
